<svg
   id="svg8"
   version="1.1"
   viewBox="0 0 477.82026 144.17198"
   height="144.17198mm"
   width="477.82025mm">
  <defs
     id="defs2">
    <marker
       style="overflow:visible"
       id="marker1836"
       refX="0"
       refY="0"
       orient="auto">
      <path
         transform="matrix(0.8,0,0,0.8,10,0)"
         style="fill:#000000;fill-opacity:1;fill-rule:evenodd;stroke:none;stroke-width:1pt;stroke-opacity:1"
         d="M 0,0 5,-5 -12.5,0 5,5 Z"
         id="path1834" />
    </marker>
    <marker
       style="overflow:visible"
       id="Arrow1Lstart"
       refX="0"
       refY="0"
       orient="auto">
      <path
         transform="matrix(0.8,0,0,0.8,10,0)"
         style="fill-rule:evenodd;stroke:#000000;stroke-width:1pt"
         d="M 0,0 5,-5 -12.5,0 5,5 Z"
         id="path1564" />
    </marker>
  </defs>
  <g
     transform="translate(37.555732,47.089634)"
     id="layer1">
    <g
       transform="matrix(0.2813267,0,0,0.2813267,-41.776758,-46.396241)"
       id="g1501">
      <path
         d="m 354.537,183.974 10.934,-27.938 c -69.707,-27.279 -150.6,-28.812 -217.952,0.192 l 11.865,27.553 c 58.034,-24.992 130.988,-24.92 195.153,0.193 z"
         id="path1489" />
      <path
         d="m 308.081,114.364 8.707,-28.709 c -46.65,-14.146 -84.755,-14.109 -127.41,0.126 l 9.496,28.457 c 36.79,-12.277 68.429,-12.241 109.207,0.126 z"
         id="path1491" />
      <path
         d="m 495.004,285.007 c 0,-33.824 -22.512,-62.479 -53.336,-71.797 l 32.996,-74.179 0.392,-0.971 C 492.15,91.05 463.312,39.878 414.326,30.08 L 328.253,15.6 c -46.482,-20.792 -99.977,-20.809 -146.497,0 -1.152,0.194 11.602,-1.952 -86.074,14.479 -49.051,9.811 -77.803,61.034 -60.73,107.982 l 0.179,0.492 33.209,74.657 c -30.824,9.318 -53.336,37.973 -53.336,71.797 0,37.037 26.991,67.869 62.332,73.908 13.873,85.557 88.256,151.092 177.668,151.092 89.412,0 163.795,-65.535 177.668,-151.092 35.341,-6.038 62.332,-36.87 62.332,-73.908 z m -47.977,-157.66 -13.425,30.181 c -4.92,-39.317 -22.57,-74.732 -48.683,-101.979 l 23.734,3.991 c 30.676,6.266 48.817,38.225 38.374,67.807 z M 101.352,59.541 125.087,55.55 C 98.975,82.797 81.324,118.211 76.404,157.529 L 62.98,127.347 C 52.557,97.821 70.622,65.818 101.352,59.541 Z M 45.004,285.007 c 0,-19.557 12.539,-36.239 30,-42.43 v 84.859 c -17.461,-6.189 -30,-22.872 -30,-42.429 z m 210,195 c -82.71,0 -150,-67.29 -150,-150 0,-16.9 0,-135.055 0,-150 0,-82.71 67.29,-150 150,-150 82.71,0 150,67.29 150,150 v 150 c 0,82.71 -67.29,150 -150,150 z m 180,-152.57 v -84.859 c 17.461,6.19 30,22.873 30,42.43 0,19.556 -12.539,36.239 -30,42.429 z"
         id="path1493" />
      <path
         d="m 225.004,255.007 c 0,-24.813 -20.186,-45 -45,-45 -24.814,0 -45,20.187 -45,45 0,24.813 20.187,45 45,45 24.813,0 45,-20.186 45,-45 z m -60,0 c 0,-8.271 6.729,-15 15,-15 8.271,0 15,6.729 15,15 0,8.272 -6.729,15 -15,15 -8.271,0 -15,-6.728 -15,-15 z"
         id="path1495" />
      <path
         d="m 330.004,210.007 c -24.814,0 -45,20.187 -45,45 0,24.813 20.186,45 45,45 24.814,0 45,-20.187 45,-45 0,-24.813 -20.187,-45 -45,-45 z m 0,60 c -8.271,0 -15,-6.728 -15,-15 0,-8.271 6.729,-15 15,-15 8.272,0 15,6.729 15,15 0,8.272 -6.729,15 -15,15 z"
         id="path1497" />
      <path
         d="m 180.004,360.007 c 0,41.355 33.645,75 75,75 41.355,0 75,-33.645 75,-75 v -15 h -150 z m 117.429,15 c -6.19,17.461 -22.873,30 -42.43,30 -19.557,0 -36.239,-12.539 -42.43,-30 z"
         id="path1499" />
    </g>
    <path
       style="stroke-width:0.29305;marker-end:url(#marker1836)"
       d="M 271.80758,39.995605 H 252.46919 V 28.72578 h 11.88524 V -15.231724 H 129.21938 V 28.72578 h 11.74135 v 11.269825 h -19.19477 v 27.20706 h 10.38392 v 29.87968 h 8.7915 v -29.87968 h 111.69105 v 29.87968 h 8.7915 v -29.87968 h 10.38365 z M 255.56263,-6.439921 V 2.3515796 H 138.01088 V -6.439921 Z M 138.01088,11.143081 h 117.55205 v 8.7915 H 138.01088 Z m 11.74135,17.583001 h 93.92546 V 39.995907 H 149.75223 Z M 263.01608,58.411165 H 130.55746 v -9.624059 h 132.45862 z"
       id="path1526" />
    <g
       transform="matrix(0.28158616,0,0,0.28158616,296.09244,-47.089769)"
       id="g1562">
      <path
         d="m 100.60938,366.39062 -21.214849,21.21094 40.609379,40.60938 70.60546,-70.60938 -21.21093,-21.21484 -49.39453,49.39453 z m 0,0"
         id="path1548" />
      <path
         d="M 0,376.99609 C 0,451.4375 60.5625,512 135.00391,512 c 74.4414,0 135,-60.5625 135,-135.00391 0,-3.77343 -0.17188,-7.53515 -0.48047,-11.27343 2.12109,0.60156 4.23828,1.15234 6.35547,1.64453 27.42578,6.32812 56.28515,3.39453 76.33593,-16.66016 l 42.42578,-42.42578 c 25.96875,-25.96484 25.91407,-71.50781 0.88672,-116.20703 l 90.24219,-70.46484 C 517.97656,96.558594 521.03906,48.832031 492.10156,19.898438 463.16797,-9.039062 415.43359,-5.96875 390.41016,26.207031 L 319.92578,116.47266 C 275.22656,91.445312 229.68359,91.390625 203.71875,117.35547 l -42.42969,42.42969 c -17.95703,17.95312 -23.87109,45.0664 -16.65625,76.33203 0.48828,2.11718 1.04297,4.23828 1.64453,6.35937 -3.74218,-0.3125 -7.5,-0.48437 -11.27343,-0.48437 C 60.5625,241.99219 0,302.55469 0,376.99609 Z M 414.07031,44.648438 c 13.99219,-17.992188 40.65625,-19.703126 56.81641,-3.539063 16.13672,16.132813 14.49609,42.792969 -3.5586,56.835937 L 326.34375,208.03125 c -11.39844,-1.96094 -20.41797,-10.97656 -22.375,-22.375 z M 301.20312,140.44922 273.00781,175.83594 V 181 c 0,31.66406 26.32813,57.99219 57.99219,57.99219 h 5.16406 l 35.38672,-28.19922 c 16.03516,30.92578 17.17969,60.96875 1.875,76.27344 -7.41797,7.41797 -18,10.92968 -30.28516,10.92968 -25.80859,-0.004 -59.125,-15.48437 -86.39062,-42.75 -20.70313,-20.70312 -35.07031,-44.95703 -40.45703,-68.29687 -4.80469,-20.82031 -1.73828,-38 8.63672,-48.375 15.30859,-15.30859 45.34765,-14.16016 76.27343,1.875 z m -116.60937,38.45703 c 2.97266,29.44531 18.90234,65.51172 50.94531,97.55469 26.05078,26.05078 61.34375,47.28515 97.55469,50.9375 -1.25781,0.66015 -13.55469,19.2539 -50.46875,10.73437 -23.33984,-5.38672 -47.59766,-19.7539 -68.30078,-40.46093 -20.70313,-20.70313 -35.07422,-44.96094 -40.46094,-68.30079 -8.54297,-37.02343 10.08203,-49.22265 10.73047,-50.46484 z m 8.51562,139.98047 c 13.50782,13.50781 28.45313,24.77734 43.9336,33.30469 1.95703,8.08203 2.96094,16.39453 2.96094,24.80468 0,57.89844 -47.10157,105 -105,105 -57.898441,0 -105.00391,-47.10156 -105.00391,-105 0,-57.89843 47.105469,-105.0039 105.00391,-105.0039 8.40625,0 16.72265,1.00781 24.80468,2.96484 8.52344,15.48047 19.79688,30.42188 33.30078,43.92969 z m 0,0"
         id="path1550" />
    </g>
  </g>
</svg>
